<svg id="Layer_1" data-name="Layer 1" xmlns="http://www.w3.org/2000/svg" viewBox="0 0 200 200"><defs><style>.cls-1{fill:#fac811;}</style></defs><title>Artboard 1</title><path class="cls-1" d="M99,177.69c-11.16,0-22.33-.18-33.49.1-4,.09-6.5-1.37-8.88-4.3C44.79,158.88,38,142.06,34.93,123.7c-4.62-27.93-2.62-55.18,10.42-80.79C48.78,36.16,53.62,30.08,58.22,24a8.34,8.34,0,0,1,5.91-2.62c23.49-.17,47-.2,70.48.07,2.37,0,5.34,1.75,7,3.62,12.23,13.86,19.07,30.37,22.19,48.38,5.24,30.23,2.27,59.44-12.57,86.76-9.49,17.48-10,17.57-29.73,17.57H99Zm-2.94-45.26v-67H68.79c-3.28,21.75-2.59,43.13.72,64.47a3.9,3.9,0,0,0,2.86,2.39C80.17,132.52,88,132.43,96.05,132.43Zm6.7-67.08v67.08c7.64,0,15,.17,22.24-.17,1.16-.06,3.1-2.4,3.17-3.76.85-16.74,1.55-33.5,2-50.26.1-4.25-.92-8.52-1.44-12.89Zm32.67,67.06c5.47,0,11.93.12,18.37-.12,1,0,2.39-1.62,2.66-2.71a128.23,128.23,0,0,0-.12-61.81c-.25-1-1.52-2.47-2.36-2.5-6.27-.21-12.54-.11-18.55-.11ZM62,65.13c-5.53,0-11-.16-16.44.14a4.52,4.52,0,0,0-3.08,2.84,128.6,128.6,0,0,0-.11,61.2c.29,1.2,1.89,2.93,3,3,5.92.29,11.87.14,16.68.14ZM45.43,138.68c1.59,8.53,1.59,8.53,9,8.53h90.47c6.88,0,7.81-1,8.2-8.53Zm.06-79.78H153.1c-1.21-8.13-1.7-8.58-9.08-8.58H55.57C47.56,50.32,47.56,50.32,45.49,58.9ZM96,171.33V153.58H74.22c.35,1.53.59,2.65.88,3.75C79.1,173,79.1,173,96,171.33Zm6.54.43c4.76,0,9.06.16,13.34-.12a4.27,4.27,0,0,0,3.06-2.38c1.66-5.14,3-10.4,4.41-15.65H102.54ZM96.21,27.27c-5.34,0-10.12-.07-14.9.07-1,0-2.52.62-2.81,1.35-2,4.95-3.65,10-5.52,15.29H96.21Zm6.33,16.66h22c-1.71-4.89-3.12-9.31-4.84-13.6-.47-1.18-1.77-2.81-2.77-2.88-4.73-.3-9.49-.13-14.35-.13ZM124.6,172.14c4.55-.45,9.45.53,11.4-1.42,4.76-4.77,8.16-10.91,12.66-17.28h-19C128.05,159.4,126.5,165.14,124.6,172.14ZM50.68,153.5c2.9,4.61,5.64,8.52,7.91,12.68,3.13,5.72,7.79,6.5,14,4.85-1.61-5.93-3.2-11.76-4.84-17.82-4.79,0-9.27,0-13.75,0C53.19,153.23,52.42,153.35,50.68,153.5ZM146.7,44c-5-13.43-10.3-17.52-21.22-16.29l5.35,16.62c4.79,0,9.41,0,14,0A10.45,10.45,0,0,0,146.7,44ZM71.93,27.78C62.86,26.4,55,33,52.31,44.31c4,0,8,.16,12-.11a4.28,4.28,0,0,0,3-2.26C69.05,37.3,70.42,32.53,71.93,27.78Z"/></svg>